# xmcd
#
# Track frame offsets: 
#        150
#        11114
#        26164
#        40652
#        55862
#        72915
#        89055
#        103324
#        135761
#        150503
#        165063
#        192483
#        204457
#        236382
#        251787
#        268717
#        285155
#        299506
#        314078
#        331323
#
# Disc length: 4595 seconds
#
# Revision: 0
# Processed by: cddbd v1.5.2PL0 Copyright (c) Steve Scherf et al.
# Submitted via: ExactAudioCopy v1.0b3
#
DISCID=1f11f114
DTITLE=Various Artist - Club Zone Vol. 1 - CD 1
DYEAR=1900
DGENRE=
TTITLE0=Fedde Le Grand - Put Your Hands Up For Detroit (Radio Edit)
TTITLE1=Picco - Back To Hawaii (Elektro Radio Mix)
TTITLE2=DJ Falk - House Of God (Radio Edit)
TTITLE3=Beatfreakz - Superfreak (Radio Edit)
TTITLE4=Crew 7 - Eye Of The Tiger (Sunset Crew Radio Edit)
TTITLE5=Peter Luts and Dominco - What A Feeling (Radio Edit)
TTITLE6=Cut N Paste - Son Of A Preacher Man (Radio Mix)
TTITLE7=Ericke - The Beat Is Rockin' (Original Mix)
TTITLE8=Michael Gray Feat. Shelley Poole - Borderline (Radio Edit)
TTITLE9=Phunk-A-Delic - Rockin' (Radio Mix)
TTITLE10=Dennis Christopher Vs. Tony Cha Cha - Slut
TTITLE11=Johnny Crockett - E For Electro (Radio Edit)
TTITLE12=DJ Delicious and Errik - We Won't Stop (Xtd Mix)
TTITLE13=H.A.B. Vs. Rocket - Peace Maker (Screen Mix)
TTITLE14=Pate No. 1 - Shining Star (Sunset Strippers Radio Mix)
TTITLE15=Jordy and Baccano - One and Only (Rilectro Vs. Miko Radio Mix)
TTITLE16=Altar Feat. Jeanie Tracy - Party People (Radio Mix)
TTITLE17=Rico Bass and Deejay Bonito - Cisko Disco (DJ Radio Mix)
TTITLE18=Freddy Fader - Time After Time (Single Edit)
TTITLE19=89ers - Higher Love (Classic Radio Cut)
EXTD=
EXTT0=
EXTT1=
EXTT2=
EXTT3=
EXTT4=
EXTT5=
EXTT6=
EXTT7=
EXTT8=
EXTT9=
EXTT10=
EXTT11=
EXTT12=
EXTT13=
EXTT14=
EXTT15=
EXTT16=
EXTT17=
EXTT18=
EXTT19=
PLAYORDER=
